# xmcd
#
# Track frame offsets:
#	150
#	12637
#	24053
#	34384
#	45015
#	55847
#	63805
#	76501
#	87621
#	98181
#	110651
#	120860
#	132221
#	144245
#	155546
#	168716
#	195774
#	219245
#	231852
#
# Disc length: 3235 seconds
#
# Revision: 0
# Processed by: cddbd v1.4PL0 Copyright (c) Steve Scherf et al.
# Submitted via: dBpowerAMP V4.0
#
DISCID=e50ca113
DTITLE=Gene Chandler - Duke of Earl
DYEAR=1960
DGENRE=Oldies
TTITLE0=Baby That's Love
TTITLE1=Big Lie
TTITLE2=Duke of Earl
TTITLE3=Festival of Love
TTITLE4=Kissing in the Kitchen
TTITLE5=Lonely Island
TTITLE6=Man's Temtations
TTITLE7=Miracle after Miracle
TTITLE8=Nite Owl
TTITLE9=Rainbow
TTITLE10=Stand be Me
TTITLE11=You Threw a Lucky Punch
TTITLE12=Bless Our Love
TTITLE13=Just Be True
TTITLE14=Nothing Can Stop Me
TTITLE15=Rainbow '65 Pt. I and II
TTITLE16=Soul Hootenanny Pt I
TTITLE17=What Now
TTITLE18=You Can't Hurt Me No More
EXTD=
EXTT0=
EXTT1=
EXTT2=
EXTT3=
EXTT4=
EXTT5=
EXTT6=
EXTT7=
EXTT8=
EXTT9=
EXTT10=
EXTT11=
EXTT12=
EXTT13=
EXTT14=
EXTT15=
EXTT16=
EXTT17=
EXTT18=
PLAYORDER=
